<svg width="40" height="40" viewBox="0 0 40 40" fill="none" xmlns="http://www.w3.org/2000/svg">
<path d="M20.5469 9.99072C18.8379 9.99082 17.1611 10.4564 15.6967 11.3375C14.2322 12.2185 13.0354 13.4818 12.2347 14.9917C11.434 16.5016 11.0596 18.201 11.1518 19.9076C11.244 21.6141 11.7992 23.2634 12.7579 24.6782L11.8384 28.2255L15.5354 27.3629C16.7696 28.1395 18.1675 28.6186 19.6187 28.7624C21.0698 28.9061 22.5346 28.7106 23.8972 28.1912C25.2598 27.6719 26.4831 26.8429 27.4704 25.7697C28.4577 24.6965 29.1821 23.4085 29.5863 22.0074C29.9905 20.6062 30.0635 19.1303 29.7995 17.6962C29.5355 16.262 28.9417 14.9088 28.0651 13.7435C27.1885 12.5781 26.053 11.6325 24.7482 10.9812C23.4435 10.3299 22.0052 9.99084 20.5469 9.99072ZM25.1735 24.5365C23.8575 25.1537 21.1099 24.8317 18.2153 22.3545C15.3207 19.8773 14.5782 17.2123 14.9844 15.8168C15.3907 14.4213 16.9868 14.1635 17.2879 14.2302C17.589 14.2968 19.0946 16.6838 18.8894 16.9622C18.6843 17.2406 17.6933 18.2317 17.6933 18.2317C17.6933 18.2317 17.6516 19.2458 19.5123 20.8383C21.3731 22.4308 22.3686 22.2329 22.3686 22.2329C22.3686 22.2329 23.1947 21.1001 23.438 20.8549C23.6814 20.6096 26.2724 21.7284 26.3848 22.0156C26.4971 22.3028 26.4891 23.9195 25.1731 24.5365H25.1735Z" fill="#F57B51"/>
<path d="M20 0C8.9543 0 0 8.9543 0 20C0 31.0457 8.9543 40 20 40C31.0457 40 40 31.0457 40 20C40 8.9543 31.0457 0 20 0ZM20.5469 30.7774C18.6695 30.7802 16.8208 30.3162 15.1672 29.4273L9.11719 30.9375L10.6496 25.0156C9.41477 22.8403 8.93109 20.3187 9.2734 17.8408C9.6157 15.363 10.7649 13.067 12.5433 11.3079C14.3216 9.54879 16.63 8.42469 19.1115 8.10942C21.5929 7.79415 24.1091 8.30528 26.2708 9.56377C28.4326 10.8222 30.1194 12.758 31.0705 15.0715C32.0216 17.385 32.1838 19.9475 31.5322 22.3625C30.8806 24.7775 29.4513 26.9105 27.4656 28.4316C25.4799 29.9527 23.0483 30.7772 20.5469 30.7774Z" fill="#F57B51"/>
</svg>
