<svg width="40" height="40" viewBox="0 0 40 40" fill="none" xmlns="http://www.w3.org/2000/svg">
<path d="M24.5905 11.5254H15.4097C14.8996 11.5254 14.3945 11.6258 13.9232 11.821C13.452 12.0162 13.0238 12.3023 12.6631 12.663C12.3024 13.0237 12.0163 13.4519 11.8211 13.9232C11.6259 14.3944 11.5254 14.8995 11.5255 15.4096V24.5904C11.5255 25.6205 11.9347 26.6085 12.6631 27.3369C13.0238 27.6976 13.452 27.9837 13.9232 28.1789C14.3945 28.3741 14.8996 28.4746 15.4097 28.4746H24.5905C25.6206 28.4746 26.6085 28.0653 27.337 27.3369C28.0654 26.6085 28.4746 25.6205 28.4746 24.5904V15.4096C28.4746 14.8995 28.3741 14.3944 28.179 13.9232C27.9838 13.4519 27.6977 13.0237 27.337 12.6631C26.9763 12.3024 26.5481 12.0163 26.0769 11.8211C25.6056 11.6259 25.1005 11.5254 24.5905 11.5254ZM20.0001 25.343C18.9433 25.343 17.9103 25.0297 17.0316 24.4426C16.153 23.8555 15.4681 23.021 15.0637 22.0447C14.6593 21.0684 14.5535 19.9941 14.7597 18.9576C14.9658 17.9212 15.4747 16.9691 16.222 16.2219C16.9692 15.4747 17.9212 14.9658 18.9577 14.7596C19.9941 14.5535 21.0684 14.6593 22.0448 15.0637C23.0211 15.4681 23.8555 16.1529 24.4426 17.0316C25.0297 17.9102 25.3431 18.9432 25.3431 20C25.3431 20.7017 25.2049 21.3964 24.9364 22.0447C24.6679 22.6929 24.2743 23.282 23.7782 23.7781C23.282 24.2743 22.693 24.6678 22.0448 24.9363C21.3965 25.2048 20.7017 25.343 20.0001 25.343V25.343ZM25.5658 15.7484C25.3144 15.7485 25.0687 15.6739 24.8596 15.5342C24.6505 15.3946 24.4876 15.1961 24.3914 14.9638C24.2952 14.7315 24.27 14.4759 24.319 14.2293C24.3681 13.9827 24.4891 13.7562 24.6669 13.5784C24.8447 13.4007 25.0712 13.2796 25.3177 13.2305C25.5643 13.1815 25.8199 13.2066 26.0522 13.3028C26.2845 13.3991 26.483 13.562 26.6227 13.771C26.7624 13.9801 26.8369 14.2258 26.8369 14.4773C26.8369 14.8144 26.703 15.1377 26.4646 15.3761C26.2263 15.6145 25.903 15.7484 25.5658 15.7484V15.7484Z" fill="#F57B51"/>
<path d="M20.0001 16.5271C19.3132 16.5271 18.6417 16.7308 18.0705 17.1124C17.4994 17.494 17.0542 18.0365 16.7914 18.6711C16.5285 19.3057 16.4597 20.004 16.5937 20.6777C16.7278 21.3514 17.0585 21.9702 17.5442 22.456C18.03 22.9417 18.6488 23.2724 19.3225 23.4064C19.9962 23.5405 20.6945 23.4717 21.3291 23.2088C21.9638 22.9459 22.5062 22.5008 22.8878 21.9297C23.2694 21.3585 23.4731 20.687 23.4731 20.0001C23.4731 19.079 23.1072 18.1957 22.4559 17.5443C21.8046 16.893 20.9212 16.5271 20.0001 16.5271V16.5271Z" fill="#F57B51"/>
<path d="M20 0C8.9543 0 0 8.9543 0 20C0 31.0457 8.9543 40 20 40C31.0457 40 40 31.0457 40 20C40 8.9543 31.0457 0 20 0ZM30.4166 24.4141C30.4166 26.006 29.7841 27.5328 28.6585 28.6585C27.5328 29.7841 26.006 30.4166 24.4141 30.4166H15.5859C13.994 30.4166 12.4672 29.7841 11.3415 28.6585C10.2158 27.5328 9.58336 26.006 9.58328 24.4141V15.5859C9.58334 13.994 10.2158 12.4672 11.3415 11.3415C12.4672 10.2158 13.994 9.5834 15.5859 9.58336H24.4141C26.006 9.58342 27.5328 10.2159 28.6585 11.3415C29.7841 12.4672 30.4166 13.994 30.4166 15.5859V24.4141Z" fill="#F57B51"/>
</svg>
