<svg width="200" height="29" viewBox="0 0 200 29" fill="none" xmlns="http://www.w3.org/2000/svg">
<path d="M10.2971 2.68962C12.2957 2.68622 14.214 3.45709 15.632 4.83332L17.5841 2.92573C16.5399 1.91307 15.2861 1.13036 13.9069 0.630097C12.5277 0.129836 11.055 -0.0764015 9.58752 0.0252214C8.12005 0.126844 6.69179 0.533977 5.39857 1.21931C4.10534 1.90463 2.97707 2.8523 2.08944 3.99874C1.20181 5.14517 0.575363 6.46385 0.252118 7.8663C-0.0711272 9.26876 -0.0836893 10.7225 0.215274 12.1301C0.514238 13.5377 1.11781 14.8666 1.9855 16.0275C2.85319 17.1884 3.96493 18.1545 5.24612 18.8611C5.04669 21.1959 6.1359 22.3053 6.1359 22.3053L9.33066 22.5039C8.58113 21.8313 8.12519 20.9027 8.05736 19.9105C9.75031 20.2805 11.5115 20.2261 13.1772 19.7523C14.8428 19.2786 16.3588 18.4009 17.5841 17.2009C17.005 15.3607 15.26 13.4531 11.8197 13.4531C8.95481 13.4531 7.0717 14.6149 6.10139 16.1702C4.75276 15.2917 3.7299 14.0118 3.18458 12.5203C2.63925 11.0288 2.60054 9.40528 3.07416 7.8906C3.54779 6.37591 4.50853 5.05079 5.81381 4.11186C7.1191 3.17294 8.69938 2.67025 10.3202 2.67838L10.2971 2.68962ZM11.8082 15.7205C12.623 15.6836 13.4227 15.9441 14.0519 16.4513C12.9107 17.0966 11.6156 17.4365 10.2971 17.437C9.72239 17.4342 9.14982 17.3675 8.59046 17.2383C9.29231 16.0953 10.5656 15.7205 11.8082 15.7205Z" fill="white"/>
<path d="M103.582 5.41797C102.091 5.41797 100.633 5.8501 99.3928 6.65971C98.1529 7.46932 97.1864 8.62005 96.6157 9.96639C96.045 11.3127 95.8957 12.7942 96.1867 14.2235C96.4776 15.6527 97.1957 16.9656 98.2502 17.996C99.3047 19.0265 100.648 19.7282 102.111 20.0125C103.574 20.2968 105.09 20.1509 106.467 19.5932C107.845 19.0355 109.023 18.0912 109.851 16.8795C110.68 15.6678 111.122 14.2433 111.122 12.786C111.121 10.8322 110.326 8.95868 108.912 7.57712C107.499 6.19556 105.581 5.41896 103.582 5.41797ZM103.582 17.6993C102.587 17.6993 101.615 17.4111 100.788 16.8713C99.9616 16.3314 99.3172 15.564 98.9366 14.6663C98.556 13.7685 98.4565 12.7806 98.6505 11.8275C98.8445 10.8744 99.3234 9.99894 100.027 9.31181C100.73 8.62467 101.626 8.15672 102.601 7.96714C103.576 7.77756 104.587 7.87486 105.506 8.24674C106.425 8.61861 107.21 9.24836 107.763 10.0563C108.315 10.8643 108.61 11.8143 108.61 12.786C108.606 14.0879 108.075 15.3353 107.133 16.2559C106.191 17.1764 104.914 17.6954 103.582 17.6993Z" fill="white"/>
<path d="M25.9833 5.41797C24.492 5.41797 23.0342 5.8501 21.7943 6.65971C20.5543 7.46932 19.5879 8.62005 19.0172 9.96639C18.4465 11.3127 18.2972 12.7942 18.5881 14.2235C18.879 15.6527 19.5972 16.9656 20.6517 17.996C21.7062 19.0265 23.0497 19.7282 24.5123 20.0125C25.9749 20.2968 27.491 20.1509 28.8688 19.5932C30.2465 19.0355 31.4242 18.0912 32.2527 16.8795C33.0812 15.6678 33.5234 14.2433 33.5234 12.786C33.5224 10.8322 32.7277 8.95868 31.3138 7.57712C29.9 6.19556 27.9828 5.41896 25.9833 5.41797ZM25.9833 17.6993C24.9897 17.6956 24.0195 17.4043 23.1951 16.8622C22.3708 16.3201 21.7293 15.5514 21.3517 14.6533C20.9741 13.7552 20.8773 12.7679 21.0734 11.8161C21.2696 10.8642 21.75 9.9905 22.4539 9.30523C23.1579 8.61997 24.0538 8.15389 25.0286 7.96582C26.0034 7.77775 27.0134 7.87614 27.931 8.24856C28.8487 8.62098 29.6328 9.25073 30.1844 10.0583C30.7361 10.8659 31.0305 11.8151 31.0305 12.786C31.0264 14.0911 30.4928 15.3414 29.5466 16.2625C28.6004 17.1836 27.3189 17.7003 25.9833 17.6993Z" fill="white"/>
<path d="M64.9341 5.41797C62.9726 5.42193 61.0926 6.18538 59.7059 7.54111C58.3193 8.89683 57.5389 10.7343 57.5359 12.6511C57.5359 16.7961 60.6923 20.1466 65.2064 20.1466C67.2366 20.1433 69.1837 19.3582 70.6256 17.9616L68.8652 16.189C68.3869 16.6626 67.8173 17.039 67.1893 17.2963C66.5613 17.5536 65.8874 17.6867 65.2064 17.6881C63.9685 17.7323 62.7585 17.3221 61.8145 16.5384C60.8705 15.7546 60.2608 14.654 60.1055 13.4531H71.9181V12.2389C71.916 10.4298 71.1795 8.69547 69.87 7.41663C68.5606 6.13779 66.7854 5.41896 64.9341 5.41797ZM60.3318 11.0133C60.6795 10.0939 61.3068 9.30047 62.1296 8.7397C62.9523 8.17894 63.931 7.8777 64.9341 7.87649C65.8972 7.87901 66.8337 8.18585 67.6037 8.7512C68.3737 9.31654 68.936 10.1101 69.2066 11.0133H60.3318Z" fill="white"/>
<path d="M53.551 3.57422H51.0351V6.63237H48.8567V9.09089H51.0351V16.1216C51.0342 16.8746 51.277 17.6086 51.7289 18.2185C52.1809 18.8284 52.8187 19.283 53.551 19.5171C53.9217 19.6389 54.3106 19.6997 54.7016 19.697H55.787V17.0736C54.5559 17.0736 53.5587 16.324 53.5587 15.1098V9.07965H56.7573V6.62113H53.5587L53.551 3.57422Z" fill="white"/>
<path d="M91.9189 3.57422H89.403V6.63237H87.2207V9.09089H89.403V16.1216C89.402 16.8746 89.6449 17.6086 90.0968 18.2185C90.5487 18.8284 91.1865 19.283 91.9189 19.5171C92.2894 19.6394 92.6783 19.7002 93.0695 19.697H94.1548V17.0736C92.9237 17.0736 91.9266 16.324 91.9266 15.1098V9.07965H95.1251V6.62113H91.9266L91.9189 3.57422Z" fill="white"/>
<path d="M80.3441 5.38428C77.4102 5.38428 76.0141 7.83905 76.0141 7.83905V5.93145H73.502V19.5732H76.0141V11.2495C76.0678 9.34189 77.6901 7.83905 79.9222 7.83905C82.2234 7.83905 83.2742 9.42434 83.2742 11.3882V19.5732H85.7863V10.8297C85.7863 7.83155 83.8879 5.38428 80.3441 5.38428Z" fill="white"/>
<path d="M41.7423 5.38428C38.8122 5.38428 37.4162 7.83905 37.4162 7.83905V5.93145H34.9003V19.5732H37.4162V11.2495C37.4699 9.33065 39.0845 7.83155 41.3243 7.83155C43.5641 7.83155 44.6763 9.41684 44.6763 11.3807V19.5732H47.1884V10.8297C47.1884 7.83155 45.2899 5.38428 41.7423 5.38428Z" fill="white"/>
<path d="M151.112 7.26565C150.028 6.31399 148.684 5.68971 147.244 5.46829C145.805 5.24687 144.33 5.43779 142.999 6.01797C141.668 6.59815 140.537 7.54274 139.743 8.73754C138.95 9.93233 138.528 11.3261 138.528 12.7505C138.528 14.1748 138.95 15.5686 139.743 16.7634C140.537 17.9582 141.668 18.9028 142.999 19.483C144.33 20.0631 145.805 20.2541 147.244 20.0326C148.684 19.8112 150.028 19.1869 151.112 18.2353V19.5732H153.624V5.93146H151.112V7.26565ZM146.088 17.6619C145.093 17.6619 144.121 17.3736 143.294 16.8336C142.467 16.2935 141.823 15.526 141.442 14.628C141.062 13.73 140.962 12.7419 141.157 11.7887C141.351 10.8355 141.83 9.96004 142.534 9.27305C143.238 8.58607 144.134 8.11842 145.109 7.92926C146.085 7.7401 147.096 7.83794 148.015 8.21039C148.933 8.58284 149.718 9.21317 150.27 10.0216C150.822 10.8301 151.117 11.7804 151.116 12.7523C151.112 14.0539 150.581 15.3009 149.639 16.2209C148.696 17.1408 147.42 17.6589 146.088 17.6619Z" fill="white"/>
<path d="M163.673 5.38429C161.817 5.38051 160.026 6.04802 158.645 7.25816V5.93146H156.132V25.0449H158.645V18.2353C159.555 19.0316 160.649 19.5997 161.834 19.8907C163.019 20.1818 164.259 20.1869 165.446 19.9058C166.633 19.6247 167.733 19.0657 168.65 18.277C169.567 17.4884 170.274 16.4936 170.711 15.3785C171.147 14.2634 171.299 13.0614 171.155 11.8759C171.01 10.6905 170.572 9.55728 169.88 8.57381C169.187 7.59035 168.26 6.78616 167.179 6.23053C166.098 5.67489 164.894 5.38448 163.673 5.38429ZM163.673 17.6619C162.679 17.6589 161.708 17.3681 160.883 16.8263C160.058 16.2845 159.416 15.5159 159.038 14.6176C158.66 13.7193 158.563 12.7317 158.759 11.7795C158.955 10.8273 159.435 9.95328 160.139 9.26779C160.843 8.58231 161.74 8.11614 162.715 7.9282C163.69 7.74025 164.7 7.83896 165.618 8.21185C166.536 8.58473 167.32 9.21507 167.871 10.0232C168.423 10.8314 168.717 11.7811 168.716 12.7523C168.712 14.0565 168.179 15.3058 167.233 16.2261C166.288 17.1465 165.007 17.6629 163.673 17.6619Z" fill="white"/>
<path d="M179.754 5.38427C176.82 5.38427 175.424 7.83903 175.424 7.83903V2.30737H172.912V19.5732H175.424V11.2495C175.481 9.34188 177.1 7.83903 179.336 7.83903C181.572 7.83903 182.684 9.42433 182.684 11.3881V19.5732H185.207V10.8297C185.207 7.83154 183.29 5.38427 179.754 5.38427Z" fill="white"/>
<path d="M132.956 8.33372V5.93142H130.444V19.5732H132.956V13.7305C132.956 9.14323 137.904 8.70474 137.904 8.70474V5.77026C134.797 5.77026 132.956 8.33372 132.956 8.33372Z" fill="white"/>
<path d="M125.017 4.13982C124.352 4.57415 123.835 5.19277 123.533 5.91625C122.622 5.58602 121.658 5.41722 120.687 5.4178C116.526 5.4178 113.147 8.41599 113.147 12.1188C113.154 13.0202 113.357 13.9099 113.741 14.7296C114.125 15.5492 114.682 16.2802 115.375 16.8746C114.998 17.1895 114.699 17.5837 114.5 18.0276C114.3 18.4715 114.206 18.9537 114.225 19.4381C114.203 19.8217 114.277 20.2048 114.441 20.5542C114.604 20.9036 114.853 21.2087 115.164 21.4431C113.891 22.3313 113.603 23.3807 113.603 24.64C113.603 26.9823 116.445 28.4551 121.105 28.4551C123.588 28.4551 125.459 28.0167 126.72 27.1397C127.276 26.7803 127.727 26.2861 128.03 25.7055C128.332 25.1249 128.476 24.4776 128.446 23.8267C128.446 22.7249 127.97 21.9528 127.134 21.2033C126.298 20.4537 125.013 20.2214 123.544 20.2214C123.544 20.2214 120.476 20.3001 119.088 20.2514C118.433 20.2383 117.805 19.9917 117.324 19.558C117.184 19.4372 117.08 19.282 117.023 19.1087C116.966 18.9353 116.957 18.7501 116.998 18.5724C117.033 18.3866 117.127 18.2163 117.266 18.0852C118.336 18.5775 119.504 18.8334 120.687 18.8347C124.845 18.8347 128.223 15.8365 128.223 12.13C128.215 11.1532 127.979 10.1912 127.534 9.31662C127.089 8.44205 126.446 7.67784 125.654 7.0818C126.244 6.28353 127.265 6.10739 128.177 6.10739C128.53 6.10739 128.756 6.10739 128.756 6.10739V3.2666H128.423C126.647 3.2666 125.892 3.56642 125.017 4.13982ZM123.406 22.931C124.239 22.931 124.94 22.886 125.278 23.1109C125.463 23.2464 125.613 23.4225 125.715 23.6249C125.818 23.8274 125.87 24.0505 125.869 24.2764C125.869 25.5357 124.334 26.274 121.807 26.274C120.1 26.274 118.229 26.1503 117.289 25.6931C116.946 25.552 116.652 25.3163 116.444 25.0148C116.235 24.7133 116.121 24.3591 116.115 23.9953C116.115 23.6206 116.499 22.7099 116.971 22.5637C118.712 23.0622 122.34 22.946 123.406 22.931ZM120.687 16.5898C117.922 16.5898 115.659 14.5773 115.659 12.1188C115.659 9.66024 117.922 7.65146 120.687 7.65146C123.452 7.65146 125.711 9.66399 125.711 12.1188C125.711 14.5735 123.46 16.5898 120.687 16.5898Z" fill="white"/>
<path d="M197.231 5.93148L193.043 14.525L188.057 5.93148H185.207L191.727 17.2272L191.344 18.0104C191.306 18.0891 191.267 18.1641 191.233 18.2391C189.641 21.3909 188.659 22.7701 186.914 22.8225L186.205 22.8488V25.5359C189.192 25.5359 190.784 24.5128 192.295 21.7432L193.699 18.8612L200 5.92773L197.231 5.93148Z" fill="white"/>
</svg>
