<svg width="137" height="72" viewBox="0 0 137 72" fill="none" xmlns="http://www.w3.org/2000/svg">
<path d="M3.00007 71.4994L16.5677 60.7328L0.459766 54.3662L3.00007 71.4994ZM133.535 0.674617C130.636 13.7245 123.221 20.8237 113.221 24.9518C103.086 29.1357 90.324 30.2544 76.8177 31.1559C63.4189 32.0503 49.3176 32.7302 36.922 36.1799C24.4653 39.6466 13.556 45.9541 6.65815 58.2014L9.2721 59.6736C15.6573 48.3365 25.7598 42.4003 37.7263 39.07C49.754 35.7228 63.4874 35.0524 77.0175 34.1493C90.44 33.2533 103.701 32.1272 114.366 27.7248C125.165 23.2668 133.328 15.4384 136.464 1.32541L133.535 0.674617Z" fill="#E0DED2"/>
</svg>
