<svg width="56" height="56" viewBox="0 0 56 56" fill="none" xmlns="http://www.w3.org/2000/svg">
<circle cx="28" cy="28" r="28" fill="#F57B51" fill-opacity="0.2"/>
<path fill-rule="evenodd" clip-rule="evenodd" d="M15.25 17.375C15.25 16.2014 16.2014 15.25 17.375 15.25H38.625C39.7986 15.25 40.75 16.2014 40.75 17.375V38.625C40.75 39.7986 39.7986 40.75 38.625 40.75H17.375C16.2014 40.75 15.25 39.7986 15.25 38.625V17.375ZM38.625 17.375H17.375V38.625H38.625V17.375Z" fill="#F57B51"/>
<path fill-rule="evenodd" clip-rule="evenodd" d="M34.375 13.125C34.9618 13.125 35.4375 13.6007 35.4375 14.1875V18.4375C35.4375 19.0243 34.9618 19.5 34.375 19.5C33.7882 19.5 33.3125 19.0243 33.3125 18.4375V14.1875C33.3125 13.6007 33.7882 13.125 34.375 13.125Z" fill="#F57B51"/>
<path fill-rule="evenodd" clip-rule="evenodd" d="M21.625 13.125C22.2118 13.125 22.6875 13.6007 22.6875 14.1875V18.4375C22.6875 19.0243 22.2118 19.5 21.625 19.5C21.0382 19.5 20.5625 19.0243 20.5625 18.4375V14.1875C20.5625 13.6007 21.0382 13.125 21.625 13.125Z" fill="#F57B51"/>
<path fill-rule="evenodd" clip-rule="evenodd" d="M15.25 22.6875C15.25 22.1007 15.7257 21.625 16.3125 21.625H39.6875C40.2743 21.625 40.75 22.1007 40.75 22.6875C40.75 23.2743 40.2743 23.75 39.6875 23.75H16.3125C15.7257 23.75 15.25 23.2743 15.25 22.6875Z" fill="#F57B51"/>
<path fill-rule="evenodd" clip-rule="evenodd" d="M31.9388 27.2487C32.3537 27.6636 32.3537 28.3364 31.9388 28.7513L25.5638 35.1263C25.1489 35.5412 24.4761 35.5412 24.0612 35.1263C23.6463 34.7114 23.6463 34.0386 24.0612 33.6237L30.4362 27.2487C30.8511 26.8338 31.5239 26.8338 31.9388 27.2487Z" fill="#F57B51"/>
<path fill-rule="evenodd" clip-rule="evenodd" d="M24.0612 27.2487C24.4761 26.8338 25.1489 26.8338 25.5638 27.2487L31.9388 33.6237C32.3537 34.0386 32.3537 34.7114 31.9388 35.1263C31.5239 35.5412 30.8511 35.5412 30.4362 35.1263L24.0612 28.7513C23.6463 28.3364 23.6463 27.6636 24.0612 27.2487Z" fill="#F57B51"/>
</svg>
