<svg width="32" height="32" viewBox="0 0 32 32" fill="none" xmlns="http://www.w3.org/2000/svg">
<circle cx="16" cy="16" r="16" fill="#F57B51"/>
<path d="M25.1461 8.26312L12.8636 20.6174C12.781 20.7008 12.6829 20.767 12.5748 20.8121C12.4667 20.8573 12.3509 20.8805 12.2339 20.8805C12.1168 20.8805 12.001 20.8573 11.8929 20.8121C11.7849 20.767 11.6867 20.7008 11.6041 20.6174L6.85433 15.835C6.77175 15.7516 6.67361 15.6854 6.56555 15.6403C6.45748 15.5951 6.34162 15.5719 6.2246 15.5719C6.10759 15.5719 5.99172 15.5951 5.88366 15.6403C5.7756 15.6854 5.67746 15.7516 5.59488 15.835C5.51198 15.9181 5.44619 16.0168 5.40131 16.1255C5.35642 16.2342 5.33331 16.3508 5.33331 16.4685C5.33331 16.5862 5.35642 16.7027 5.40131 16.8114C5.44619 16.9201 5.51198 17.0189 5.59488 17.1019L10.3465 21.8807C10.8477 22.384 11.527 22.6667 12.2352 22.6667C12.9434 22.6667 13.6227 22.384 14.1239 21.8807L26.4055 9.52912C26.4883 9.44607 26.554 9.34741 26.5988 9.23879C26.6436 9.13017 26.6666 9.01372 26.6666 8.89612C26.6666 8.77852 26.6436 8.66207 26.5988 8.55345C26.554 8.44483 26.4883 8.34617 26.4055 8.26312C26.3229 8.17972 26.2248 8.11355 26.1167 8.0684C26.0087 8.02324 25.8928 8 25.7758 8C25.6588 8 25.5429 8.02324 25.4349 8.0684C25.3268 8.11355 25.2287 8.17972 25.1461 8.26312Z" fill="white"/>
</svg>
