<svg width="58" height="58" viewBox="0 0 58 58" fill="none" xmlns="http://www.w3.org/2000/svg">
<circle cx="29" cy="29" r="29" fill="#A4C6F1" fill-opacity="0.2"/>
<path d="M34.0426 20.2518C35.1773 20.2518 35.1773 21.9974 34.0426 21.9974H25.9251C24.354 21.9974 23.7429 23.4813 23.7429 24.7904C23.7429 26.0997 24.354 27.6708 25.9251 27.6708H31.0747C33.606 27.6708 35.0025 29.8529 35.0025 32.2093C35.0025 34.4787 33.606 36.7479 31.0747 36.7479H29.5037V38.6681C29.5037 39.8028 27.7581 39.8028 27.7581 38.6681V36.7479H22.9575C21.8227 36.7479 21.8227 35.0023 22.9575 35.0023H31.075C32.6461 35.0023 33.2571 33.5184 33.2571 32.2093C33.2571 30.9 32.646 29.4163 31.075 29.4163H25.9253C23.3941 29.4163 21.9976 27.147 21.9976 24.7903C21.9976 22.521 23.3941 20.2517 25.9253 20.2517H27.7583V18.3315C27.7583 17.1968 29.5039 17.1968 29.5039 18.3315V20.2517L34.0426 20.2518Z" fill="#A4C6F1"/>
<path d="M28.5438 11C38.145 11 46 18.8556 46 28.5438C46 38.145 38.1444 46 28.5438 46C18.8556 46 11 38.1444 11 28.5438C11 18.8556 18.8556 11 28.5438 11ZM28.5438 12.7456C19.8156 12.7456 12.7456 19.8156 12.7456 28.5438C12.7456 37.1844 19.8156 44.2544 28.5438 44.2544C37.1844 44.2544 44.2544 37.1844 44.2544 28.5438C44.2544 19.8156 37.1844 12.7456 28.5438 12.7456Z" fill="#A4C6F1"/>
</svg>
