<svg width="246" height="35" viewBox="0 0 246 35" fill="none" xmlns="http://www.w3.org/2000/svg">
<path d="M12.6655 3.30823C15.1236 3.30405 17.4833 4.25222 19.2273 5.94499L21.6285 3.59864C20.3441 2.35308 18.802 1.39034 17.1055 0.77502C15.4091 0.159698 13.5976 -0.0939739 11.7926 0.0310223C9.98766 0.156019 8.2309 0.656792 6.64024 1.49975C5.04957 2.3427 3.6618 3.50833 2.57001 4.91845C1.47823 6.32856 0.707696 7.95054 0.310105 9.67555C-0.0874865 11.4006 -0.102938 13.1887 0.264787 14.9201C0.632512 16.6514 1.37491 18.2859 2.44217 19.7138C3.50943 21.1417 4.87686 22.3301 6.45273 23.1992C6.20743 26.071 7.54716 27.4355 7.54716 27.4355L11.4767 27.6798C10.5548 26.8525 9.99399 25.7103 9.91055 24.4899C11.9929 24.945 14.1592 24.8781 16.2079 24.2954C18.2567 23.7127 20.1213 22.6331 21.6285 21.1571C20.9161 18.8937 18.7697 16.5473 14.5383 16.5473C11.0144 16.5473 8.69819 17.9764 7.5047 19.8894C5.84589 18.8088 4.58777 17.2345 3.91703 15.4C3.24628 13.5655 3.19866 11.5685 3.78122 9.70543C4.36378 7.84237 5.54549 6.21247 7.15099 5.05759C8.75649 3.90272 10.7002 3.2844 12.6938 3.2944L12.6655 3.30823ZM14.5241 19.3362C15.5263 19.2909 16.5099 19.6113 17.2838 20.2351C15.8801 21.0288 14.2872 21.447 12.6655 21.4475C11.9585 21.444 11.2543 21.362 10.5663 21.2032C11.4295 19.7972 12.9957 19.3362 14.5241 19.3362Z" fill="#101010"/>
<path d="M127.406 6.66406C125.571 6.66406 123.778 7.19558 122.253 8.1914C120.728 9.18723 119.539 10.6026 118.837 12.2586C118.135 13.9146 117.952 15.7368 118.31 17.4948C118.667 19.2528 119.551 20.8676 120.848 22.1351C122.145 23.4025 123.797 24.2656 125.596 24.6153C127.395 24.965 129.26 24.7856 130.955 24.0996C132.649 23.4137 134.098 22.2521 135.117 20.7617C136.136 19.2714 136.68 17.5192 136.68 15.7268C136.679 13.3236 135.701 11.0191 133.962 9.31982C132.223 7.62049 129.865 6.66528 127.406 6.66406ZM127.406 21.7701C126.183 21.7701 124.987 21.4157 123.97 20.7516C122.953 20.0876 122.16 19.1437 121.692 18.0395C121.224 16.9352 121.101 15.7201 121.34 14.5478C121.579 13.3755 122.168 12.2987 123.033 11.4535C123.898 10.6083 125 10.0327 126.199 9.79955C127.399 9.56637 128.642 9.68604 129.772 10.1434C130.902 10.6009 131.868 11.3754 132.548 12.3693C133.227 13.3631 133.59 14.5315 133.59 15.7268C133.585 17.3281 132.932 18.8624 131.773 19.9947C130.615 21.127 129.044 21.7652 127.406 21.7701Z" fill="#101010"/>
<path d="M31.9595 6.66406C30.1252 6.66406 28.3321 7.19558 26.8069 8.1914C25.2818 9.18723 24.0931 10.6026 23.3911 12.2586C22.6892 13.9146 22.5055 15.7368 22.8634 17.4948C23.2212 19.2528 24.1045 20.8676 25.4015 22.1351C26.6986 23.4025 28.3511 24.2656 30.1501 24.6153C31.9492 24.965 33.8139 24.7856 35.5086 24.0996C37.2033 23.4137 38.6517 22.2521 39.6708 20.7617C40.6899 19.2714 41.2338 17.5192 41.2338 15.7268C41.2325 13.3236 40.255 11.0191 38.516 9.31982C36.777 7.62049 34.4188 6.66528 31.9595 6.66406ZM31.9595 21.7701C30.7373 21.7656 29.5439 21.4073 28.53 20.7404C27.5161 20.0736 26.7271 19.1282 26.2626 18.0235C25.7982 16.9189 25.679 15.7045 25.9203 14.5337C26.1616 13.3629 26.7525 12.2883 27.6183 11.4454C28.4842 10.6025 29.5862 10.0292 30.7852 9.79792C31.9842 9.5666 33.2265 9.68761 34.3552 10.1457C35.4838 10.6038 36.4483 11.3784 37.1269 12.3717C37.8054 13.365 38.1675 14.5325 38.1675 15.7268C38.1625 17.3321 37.5061 18.8699 36.3423 20.0028C35.1784 21.1358 33.6022 21.7713 31.9595 21.7701Z" fill="#101010"/>
<path d="M79.8689 6.66406C77.4562 6.66894 75.1439 7.60798 73.4383 9.27553C71.7327 10.9431 70.7729 13.2032 70.7692 15.5608C70.7692 20.6592 74.6515 24.7803 80.2039 24.7803C82.701 24.7762 85.0959 23.8106 86.8695 22.0928L84.7042 19.9124C84.1159 20.495 83.4153 20.9579 82.6429 21.2744C81.8704 21.5909 81.0415 21.7547 80.2039 21.7563C78.6813 21.8106 77.193 21.3062 76.0318 20.3422C74.8707 19.3782 74.1208 18.0244 73.9298 16.5473H88.4592V15.0537C88.4567 12.8286 87.5507 10.6954 85.9402 9.12241C84.3296 7.54944 82.146 6.66528 79.8689 6.66406ZM74.2081 13.5464C74.6358 12.4154 75.4074 11.4395 76.4194 10.7498C77.4314 10.0601 78.6351 9.68954 79.8689 9.68804C81.0536 9.69115 82.2055 10.0686 83.1526 10.7639C84.0997 11.4593 84.7913 12.4354 85.1241 13.5464H74.2081Z" fill="#101010"/>
<path d="M65.8678 4.39624H62.7732V8.15777H60.0938V11.1817H62.7732V19.8296C62.772 20.7558 63.0707 21.6586 63.6266 22.4087C64.1825 23.1589 64.967 23.718 65.8678 24.006C66.3237 24.1558 66.802 24.2306 67.283 24.2272H68.618V21.0004C67.1037 21.0004 65.8772 20.0785 65.8772 18.585V11.1679H69.8115V8.14394H65.8772L65.8678 4.39624Z" fill="#101010"/>
<path d="M113.06 4.39624H109.966V8.15777H107.281V11.1817H109.966V19.8296C109.964 20.7558 110.263 21.6586 110.819 22.4087C111.375 23.1589 112.159 23.718 113.06 24.006C113.516 24.1565 113.994 24.2312 114.475 24.2272H115.81V21.0004C114.296 21.0004 113.07 20.0785 113.07 18.585V11.1679H117.004V8.14394H113.07L113.06 4.39624Z" fill="#101010"/>
<path d="M98.8233 6.62256C95.2145 6.62256 93.4974 9.64192 93.4974 9.64192V7.29558H90.4075V24.075H93.4974V13.8368C93.5634 11.4904 95.5588 9.64192 98.3043 9.64192C101.135 9.64192 102.427 11.5918 102.427 14.0073V24.075H105.517V13.3205C105.517 9.6327 103.182 6.62256 98.8233 6.62256Z" fill="#101010"/>
<path d="M51.3431 6.62256C47.739 6.62256 46.0219 9.64192 46.0219 9.64192V7.29558H42.9273V24.075H46.0219V13.8368C46.0879 11.4766 48.0739 9.6327 50.8289 9.6327C53.5838 9.6327 54.9518 11.5826 54.9518 13.9981V24.075H58.0417V13.3205C58.0417 9.6327 55.7066 6.62256 51.3431 6.62256Z" fill="#101010"/>
<path d="M185.868 8.93672C184.534 7.76618 182.882 6.99831 181.111 6.72596C179.34 6.45361 177.526 6.68845 175.888 7.40207C174.251 8.11569 172.86 9.27754 171.884 10.7471C170.908 12.2167 170.389 13.9311 170.389 15.683C170.389 17.435 170.908 19.1494 171.884 20.6189C172.86 22.0885 174.251 23.2504 175.888 23.964C177.526 24.6776 179.34 24.9125 181.111 24.6401C182.882 24.3678 184.534 23.5999 185.868 22.4294V24.075H188.958V7.29566H185.868V8.93672ZM179.688 21.7241C178.465 21.7241 177.269 21.3695 176.252 20.7053C175.235 20.041 174.442 19.0969 173.974 17.9924C173.506 16.8878 173.384 15.6725 173.623 14.5C173.862 13.3276 174.451 12.2508 175.317 11.4058C176.182 10.5608 177.285 9.98562 178.485 9.75296C179.684 9.5203 180.928 9.64063 182.058 10.0987C183.188 10.5569 184.154 11.3322 184.833 12.3266C185.512 13.321 185.874 14.4899 185.873 15.6853C185.868 17.2862 185.214 18.8201 184.055 19.9516C182.897 21.0832 181.326 21.7204 179.688 21.7241Z" fill="#101010"/>
<path d="M201.317 6.62258C199.035 6.61792 196.832 7.43897 195.133 8.92744V7.2956H192.043V30.8052H195.133V22.4293C196.252 23.4088 197.599 24.1076 199.056 24.4655C200.514 24.8235 202.038 24.8298 203.499 24.4841C204.959 24.1383 206.312 23.4507 207.44 22.4807C208.568 21.5106 209.438 20.2871 209.974 18.9155C210.511 17.5439 210.698 16.0654 210.52 14.6073C210.342 13.1492 209.804 11.7553 208.952 10.5457C208.1 9.33602 206.96 8.34687 205.63 7.66344C204.3 6.98002 202.82 6.6228 201.317 6.62258ZM201.317 21.724C200.095 21.7204 198.901 21.3627 197.886 20.6963C196.871 20.0298 196.082 19.0844 195.617 17.9795C195.152 16.8747 195.032 15.6599 195.273 14.4887C195.514 13.3175 196.105 12.2424 196.971 11.3993C197.838 10.5561 198.94 9.98276 200.139 9.75158C201.339 9.52041 202.582 9.64182 203.71 10.1005C204.839 10.5591 205.804 11.3344 206.482 12.3285C207.16 13.3225 207.521 14.4906 207.521 15.6853C207.516 17.2893 206.86 18.826 205.697 19.9581C204.534 21.0901 202.959 21.7252 201.317 21.724Z" fill="#101010"/>
<path d="M221.097 6.62271C217.488 6.62271 215.771 9.64208 215.771 9.64208V2.83813H212.681V24.0751H215.771V13.8369C215.842 11.4906 217.833 9.64208 220.583 9.64208C223.333 9.64208 224.701 11.592 224.701 14.0075V24.0751H227.805V13.3206C227.805 9.63286 225.446 6.62271 221.097 6.62271Z" fill="#101010"/>
<path d="M163.536 10.2505V7.29563H160.446V24.075H163.536V16.8885C163.536 11.2462 169.621 10.7068 169.621 10.7068V7.09741C165.8 7.09741 163.536 10.2505 163.536 10.2505Z" fill="#101010"/>
<path d="M153.771 5.09213C152.953 5.62636 152.317 6.38726 151.945 7.27714C150.825 6.87095 149.64 6.66333 148.445 6.66404C143.327 6.66404 139.171 10.3518 139.171 14.9062C139.18 16.015 139.429 17.1093 139.901 18.1175C140.373 19.1257 141.059 20.0248 141.912 20.756C141.448 21.1433 141.08 21.6281 140.834 22.1741C140.589 22.7201 140.474 23.3132 140.496 23.909C140.47 24.3809 140.561 24.8521 140.762 25.2818C140.963 25.7115 141.269 26.0868 141.652 26.3752C140.086 27.4677 139.732 28.7584 139.732 30.3073C139.732 33.1884 143.228 35 148.959 35C152.013 35 154.315 34.4606 155.866 33.382C156.55 32.9399 157.105 32.3321 157.477 31.6179C157.849 30.9037 158.025 30.1076 157.988 29.307C157.988 27.9517 157.403 27.0021 156.375 26.0802C155.347 25.1582 153.766 24.8724 151.96 24.8724C151.96 24.8724 148.186 24.9692 146.478 24.9093C145.672 24.8933 144.901 24.59 144.308 24.0565C144.136 23.9079 144.009 23.717 143.938 23.5038C143.868 23.2906 143.857 23.0628 143.907 22.8442C143.951 22.6157 144.066 22.4062 144.237 22.2449C145.554 22.8504 146.99 23.1652 148.445 23.1668C153.559 23.1668 157.715 19.4791 157.715 14.92C157.704 13.7186 157.414 12.5353 156.866 11.4596C156.319 10.3839 155.528 9.44389 154.554 8.71076C155.281 7.72889 156.535 7.51223 157.658 7.51223C158.092 7.51223 158.37 7.51223 158.37 7.51223V4.01807H157.96C155.776 4.01807 154.847 4.38684 153.771 5.09213ZM151.79 28.2053C152.813 28.2053 153.677 28.1499 154.092 28.4265C154.319 28.5932 154.504 28.8098 154.63 29.0588C154.756 29.3078 154.82 29.5823 154.818 29.8601C154.818 31.409 152.931 32.3171 149.823 32.3171C147.723 32.3171 145.421 32.165 144.266 31.6026C143.843 31.4291 143.482 31.1392 143.226 30.7684C142.97 30.3975 142.829 29.9618 142.822 29.5144C142.822 29.0534 143.294 27.9333 143.874 27.7535C146.016 28.3666 150.478 28.2237 151.79 28.2053ZM148.445 20.4056C145.044 20.4056 142.261 17.9302 142.261 14.9062C142.261 11.8822 145.044 9.41144 148.445 9.41144C151.846 9.41144 154.625 11.8869 154.625 14.9062C154.625 17.9256 151.856 20.4056 148.445 20.4056Z" fill="#101010"/>
<path d="M242.594 7.29563L237.443 17.8657L231.31 7.29563H227.805L235.825 21.1893L235.353 22.1527C235.306 22.2495 235.259 22.3417 235.216 22.4339C233.258 26.3107 232.051 28.0071 229.904 28.0716L229.032 28.1039V31.4091C232.706 31.4091 234.664 30.1506 236.523 26.744L238.249 23.1992L246 7.29102L242.594 7.29563Z" fill="#101010"/>
</svg>
