<svg width="24" height="24" viewBox="0 0 24 24" fill="none" xmlns="http://www.w3.org/2000/svg">
<circle cx="12" cy="12" r="12" fill="#6EA349"/>
<path d="M18.8596 6.19734L9.6477 15.4631C9.58577 15.5256 9.51217 15.5752 9.43112 15.6091C9.35007 15.643 9.26317 15.6604 9.17541 15.6604C9.08765 15.6604 9.00075 15.643 8.9197 15.6091C8.83866 15.5752 8.76505 15.5256 8.70312 15.4631L5.14076 11.8763C5.07883 11.8137 5.00522 11.7641 4.92418 11.7302C4.84313 11.6964 4.75623 11.6789 4.66847 11.6789C4.58071 11.6789 4.49381 11.6964 4.41276 11.7302C4.33171 11.7641 4.25811 11.8137 4.19618 11.8763C4.134 11.9386 4.08466 12.0126 4.05099 12.0941C4.01733 12.1757 4 12.2631 4 12.3513C4 12.4396 4.01733 12.527 4.05099 12.6086C4.08466 12.6901 4.134 12.7641 4.19618 12.8264L7.75987 16.4106C8.1358 16.788 8.64526 17 9.17641 17C9.70757 17 10.217 16.788 10.593 16.4106L19.8042 7.14684C19.8662 7.08455 19.9155 7.01056 19.9491 6.92909C19.9827 6.84763 20 6.76029 20 6.67209C20 6.58389 19.9827 6.49655 19.9491 6.41509C19.9155 6.33362 19.8662 6.25963 19.8042 6.19734C19.7422 6.13479 19.6686 6.08516 19.5876 6.0513C19.5065 6.01743 19.4196 6 19.3319 6C19.2441 6 19.1572 6.01743 19.0762 6.0513C18.9951 6.08516 18.9215 6.13479 18.8596 6.19734Z" fill="white"/>
</svg>
