<svg width="58" height="58" viewBox="0 0 58 58" fill="none" xmlns="http://www.w3.org/2000/svg">
<circle cx="29" cy="29" r="29" fill="#BED5AE" fill-opacity="0.2"/>
<g clip-path="url(#clip0_15_997)">
<path d="M30.199 11C22.8071 11 16.1849 15.7657 14.0951 22.5893C13.8666 23.3349 13.9296 24.1271 14.2721 24.8202L15.5755 27.4546C15.7987 27.8929 15.7105 28.4252 15.3572 28.7782L11.5237 32.5874C11.1186 32.9885 10.9313 33.5633 11.023 34.1249C11.1147 34.6872 11.475 35.1729 11.9836 35.4228L13.4875 36.1745C13.6618 36.2601 13.7778 36.4236 13.7983 36.6193L14.5843 43.1997C14.7578 44.6827 16.0193 45.801 17.5187 45.801C17.7921 45.801 18.0656 45.7629 18.2966 45.6964L22.8929 44.6892C23.1168 44.6408 23.3579 44.729 23.4971 44.9098L24.9229 46.7658C25.0366 46.9134 25.2124 47.0001 25.3987 47.0001H39.7996C40.118 47.0001 40.3811 46.7514 40.3987 46.4333L40.5238 44.1745C40.6601 41.7176 41.6186 39.3215 43.223 37.4274C45.6584 34.5519 46.9999 30.92 46.9999 27.2002C46.9999 18.2674 39.463 11 30.199 11ZM42.3071 36.6515C40.5353 38.7438 39.4762 41.392 39.3256 44.1081L39.2319 45.8H25.6943L24.4486 44.1784C24.0314 43.6355 23.3048 43.3716 22.636 43.5169L18.0048 44.5327C17.8451 44.5781 17.6816 44.6009 17.5188 44.6009C16.6281 44.6009 15.879 43.9385 15.7762 43.0588L14.991 36.4851C14.9275 35.8849 14.5633 35.3662 14.0204 35.0994L12.5166 34.3476C12.3499 34.2656 12.2371 34.1141 12.2072 33.9319C12.1776 33.75 12.2362 33.571 12.3689 33.4397L16.2045 29.6285C16.9278 28.9055 17.1048 27.813 16.648 26.9162L15.3478 24.2883C15.1412 23.8711 15.104 23.3924 15.2423 22.9409C17.1792 16.6168 23.3294 12.2 30.199 12.2C38.8014 12.2 45.7998 18.9289 45.7998 27.2C45.7999 30.6362 44.5595 33.9928 42.3071 36.6515Z" fill="#BED5AE"/>
<path d="M39.1804 20.2026C37.0922 17.5288 33.8475 15.8 30.1999 15.8C29.7358 15.8 29.2808 15.8363 28.8311 15.8904C28.8089 15.8919 28.788 15.8962 28.766 15.9004C23.1559 16.6091 18.7999 21.4008 18.7999 27.2C18.7999 29.7798 19.6714 32.1542 21.1216 34.0667C21.1481 34.1149 21.1799 34.1575 21.2195 34.1975C23.3076 36.8713 26.5523 38.6 30.1999 38.6C30.6525 38.6 31.0967 38.5663 31.5357 38.5147C31.5879 38.5139 31.64 38.5057 31.6914 38.4909C37.2735 37.7564 41.5999 32.9792 41.5999 27.2C41.5999 24.6202 40.7284 22.2457 39.2782 20.3332C39.2517 20.2851 39.2199 20.2425 39.1804 20.2026ZM30.1999 17C33.3463 17 36.163 18.4334 38.0355 20.6799L35 25.9913L29.8696 17.0167C29.9802 17.0132 30.0884 17 30.1999 17ZM34.309 27.2004L32.2518 30.8H28.149L26.0908 27.1997L28.148 23.6H32.2507L34.309 27.2004ZM28.5601 17.1444L31.5647 22.4H21.2048C22.6774 19.6516 25.3741 17.6627 28.5601 17.1444ZM21.5934 32.6509C20.5898 31.072 19.9999 29.2055 19.9999 27.2C19.9999 25.9314 20.2432 24.7214 20.6683 23.6H26.7659L21.5934 32.6509ZM30.1999 37.4C27.0534 37.4 24.2368 35.9667 22.3643 33.7202L25.3998 28.4088L30.5302 37.3833C30.4195 37.3868 30.3113 37.4 30.1999 37.4ZM31.8397 37.2557L28.8351 32H39.195C37.7224 34.7485 35.0257 36.7374 31.8397 37.2557ZM39.7315 30.8H33.6338L38.8064 21.7491C39.81 23.3281 40.3999 25.1946 40.3999 27.2C40.3999 28.4686 40.1566 29.6787 39.7315 30.8Z" fill="#BED5AE"/>
</g>
<defs>
<clipPath id="clip0_15_997">
<rect width="36" height="36" fill="white" transform="translate(11 11)"/>
</clipPath>
</defs>
</svg>
