<svg width="58" height="58" viewBox="0 0 58 58" fill="none" xmlns="http://www.w3.org/2000/svg">
<circle cx="29" cy="29" r="29" fill="#F57B51" fill-opacity="0.2"/>
<g clip-path="url(#clip0_15_1050)">
<path d="M44.3333 43.6665H13.6667C13.2987 43.6665 13 43.9651 13 44.3331C13 44.7011 13.2987 44.9998 13.6667 44.9998H44.3334C44.7014 44.9998 45.0001 44.7011 45.0001 44.3331C45 43.9651 44.7013 43.6665 44.3333 43.6665Z" fill="#F57B51"/>
<path d="M19 35.6665H15C14.632 35.6665 14.3333 35.9652 14.3333 36.3332V44.3332C14.3333 44.7011 14.632 44.9998 15 44.9998H19C19.368 44.9998 19.6667 44.7011 19.6667 44.3331V36.3331C19.6667 35.9651 19.368 35.6665 19 35.6665ZM18.3333 43.6665H15.6667V36.9998H18.3334V43.6665H18.3333Z" fill="#F57B51"/>
<path d="M27 29H23C22.632 29 22.3333 29.2987 22.3333 29.6667V44.3334C22.3333 44.7014 22.632 45.0001 23 45.0001H27C27.368 45.0001 27.6667 44.7014 27.6667 44.3334V29.6667C27.6667 29.2987 27.368 29 27 29ZM26.3333 43.6667H23.6666V30.3333H26.3333V43.6667Z" fill="#F57B51"/>
<path d="M35 31.6665H31C30.632 31.6665 30.3333 31.9652 30.3333 32.3332V44.3332C30.3333 44.7012 30.632 44.9999 31 44.9999H35C35.368 44.9999 35.6667 44.7012 35.6667 44.3332V32.3332C35.6667 31.9651 35.368 31.6665 35 31.6665ZM34.3333 43.6665H31.6666V32.9998H34.3333V43.6665Z" fill="#F57B51"/>
<path d="M43 23.6665H39C38.632 23.6665 38.3333 23.9652 38.3333 24.3332V44.3332C38.3333 44.7012 38.632 44.9999 39 44.9999H43C43.368 44.9999 43.6667 44.7012 43.6667 44.3332V24.3332C43.6667 23.9651 43.368 23.6665 43 23.6665ZM42.3333 43.6665H39.6666V24.9998H42.3333V43.6665Z" fill="#F57B51"/>
<path d="M17 25C15.5293 25 14.3333 26.196 14.3333 27.6667C14.3333 29.1374 15.5293 30.3334 17 30.3334C18.4707 30.3334 19.6667 29.1374 19.6667 27.6667C19.6667 26.196 18.4707 25 17 25ZM17 29C16.264 29 15.6667 28.4013 15.6667 27.6667C15.6667 26.932 16.264 26.3334 17 26.3334C17.736 26.3334 18.3333 26.9321 18.3333 27.6667C18.3333 28.4013 17.736 29 17 29Z" fill="#F57B51"/>
<path d="M25 18.3333C23.5293 18.3333 22.3333 19.5293 22.3333 20.9999C22.3333 22.4706 23.5293 23.6666 25 23.6666C26.4707 23.6666 27.6667 22.4706 27.6667 20.9999C27.6667 19.5293 26.4707 18.3333 25 18.3333ZM25 22.3333C24.264 22.3333 23.6667 21.7346 23.6667 20.9999C23.6667 20.2653 24.264 19.6666 25 19.6666C25.736 19.6666 26.3333 20.2653 26.3333 20.9999C26.3333 21.7346 25.736 22.3333 25 22.3333Z" fill="#F57B51"/>
<path d="M33 21C31.5293 21 30.3333 22.196 30.3333 23.6667C30.3333 25.1374 31.5293 26.3334 33 26.3334C34.4707 26.3334 35.6667 25.1374 35.6667 23.6667C35.6667 22.196 34.4707 21 33 21ZM33 25C32.264 25 31.6667 24.4013 31.6667 23.6667C31.6667 22.932 32.264 22.3334 33 22.3334C33.736 22.3334 34.3333 22.9321 34.3333 23.6667C34.3333 24.4013 33.736 25 33 25Z" fill="#F57B51"/>
<path d="M41 13C39.5293 13 38.3333 14.196 38.3333 15.6667C38.3333 17.1374 39.5293 18.3334 41 18.3334C42.4707 18.3334 43.6667 17.1374 43.6667 15.6667C43.6667 14.196 42.4707 13 41 13ZM41 17C40.264 17 39.6667 16.4013 39.6667 15.6667C39.6667 14.932 40.264 14.3334 41 14.3334C41.736 14.3334 42.3333 14.9321 42.3333 15.6667C42.3333 16.4013 41.736 17 41 17Z" fill="#F57B51"/>
<path d="M40.0587 16.6081C39.7987 16.3481 39.376 16.3481 39.116 16.6081L33.9427 21.7814C33.6827 22.0414 33.6827 22.4641 33.9427 22.7241C34.0734 22.8534 34.244 22.9188 34.4147 22.9188C34.584 22.9188 34.7547 22.8548 34.8854 22.7241L40.0587 17.5508C40.3187 17.2908 40.3187 16.8681 40.0587 16.6081Z" fill="#F57B51"/>
<path d="M31.388 22.128L27.1053 20.9067C26.7466 20.8027 26.3826 21.0107 26.2826 21.3654C26.1813 21.7201 26.3866 22.0881 26.74 22.1894L31.0226 23.4107C31.084 23.428 31.1453 23.436 31.2053 23.436C31.496 23.436 31.7626 23.2453 31.8466 22.952C31.948 22.5987 31.7427 22.2293 31.388 22.128Z" fill="#F57B51"/>
<path d="M23.96 21.8307C23.7307 21.5427 23.312 21.496 23.024 21.724L17.9973 25.732C17.7093 25.9627 17.6613 26.3813 17.892 26.6693C18.024 26.8346 18.2187 26.92 18.4133 26.92C18.5586 26.92 18.7053 26.872 18.828 26.776L23.8547 22.768C24.1427 22.5373 24.1907 22.1187 23.96 21.8307Z" fill="#F57B51"/>
</g>
<defs>
<clipPath id="clip0_15_1050">
<rect width="32" height="32" fill="white" transform="translate(13 13)"/>
</clipPath>
</defs>
</svg>
