<svg width="58" height="58" viewBox="0 0 58 58" fill="none" xmlns="http://www.w3.org/2000/svg">
<circle cx="29" cy="29" r="29" fill="#CAAAF3" fill-opacity="0.2"/>
<path d="M29.9661 13.0043C29.6912 13.0386 29.4886 13.2781 29.4994 13.5557V16.7644C29.4971 16.9077 29.5527 17.0458 29.6527 17.1476C29.7531 17.2495 29.89 17.3069 30.0329 17.3069C30.1758 17.3069 30.3124 17.2495 30.4128 17.1476C30.5131 17.0458 30.5683 16.9077 30.5665 16.7644V13.5557C30.5725 13.3986 30.5094 13.2468 30.3937 13.1404C30.2781 13.0345 30.1217 12.9845 29.9662 13.0042L29.9661 13.0043ZM24.6471 15.1433C24.4665 15.156 24.3046 15.2594 24.2173 15.4179C24.1296 15.5765 24.1281 15.769 24.2135 15.9287L25.2806 18.0678V18.0682C25.3444 18.1969 25.4571 18.2946 25.5933 18.3405C25.7295 18.386 25.878 18.3752 26.0063 18.3111C26.1347 18.2469 26.232 18.1338 26.2776 17.9973C26.3227 17.8611 26.3119 17.7118 26.2477 17.5835L25.1806 15.4444V15.4441C25.0836 15.2415 24.8702 15.1213 24.6471 15.1433L24.6471 15.1433ZM35.3515 15.1433C35.1519 15.1482 34.972 15.2642 34.8847 15.444L33.8176 17.5831V17.5835C33.7531 17.7118 33.7426 17.8611 33.7878 17.9973C33.8329 18.1338 33.9307 18.2465 34.059 18.311C34.1874 18.3752 34.3359 18.3857 34.4721 18.3401C34.6082 18.2946 34.7206 18.1969 34.7847 18.0681L35.8518 15.9291V15.9287C35.9425 15.7586 35.9343 15.5522 35.8306 15.3896C35.7268 15.2269 35.544 15.1329 35.3515 15.1433L35.3515 15.1433ZM19.7443 15.7284H19.7446C19.5943 15.7649 19.4674 15.8556 19.3943 15.9791L6.0718 37.9218C5.97927 38.0707 5.97592 38.2517 6.06322 38.4032C6.15053 38.5546 6.31693 38.6565 6.50535 38.674C6.52214 38.6744 6.53856 38.6744 6.55535 38.674H35.3685C35.4868 38.6781 35.6032 38.649 35.7021 38.5904H51.3762C51.59 38.5875 51.7877 38.5087 51.9019 38.3811C52.016 38.2532 52.0317 38.0931 51.9429 37.9554L38.6032 19.7722C38.4965 19.6255 38.285 19.5319 38.0518 19.5285C37.8186 19.5248 37.6014 19.6121 37.4862 19.7554L35.0685 22.6633C33.4283 21.0866 31.7012 20.5075 30.0326 20.5075C28.3879 20.5075 26.6829 21.0706 25.0636 22.5966L20.3614 15.9452C20.2301 15.7601 19.9808 15.672 19.7446 15.728L19.7443 15.7284ZM19.9443 17.2155L25.7636 25.488L22.0452 26.8916L18.5104 25.3708V25.3712C18.4276 25.3316 18.3354 25.3145 18.2436 25.3208C18.2212 25.3253 18.1988 25.3305 18.1772 25.3376L14.5088 26.1566L19.9446 17.2155L19.9443 17.2155ZM37.9862 20.8921L42.0213 26.3902H39.6368L39.6375 26.3905C39.5692 26.3887 39.5013 26.4002 39.4372 26.4241L36.9858 27.4102L33.751 26.0231L37.9862 20.8924L37.9862 20.8921ZM30.033 21.5775C31.4926 21.5775 32.8943 22.0178 34.3849 23.4826L29.6826 29.1314L25.6807 23.4826C27.1712 22.0177 28.5734 21.5775 30.0326 21.5775H30.033ZM26.3978 26.3906L34.3181 37.6376H7.5222L13.7419 27.4098L18.2442 26.4072L21.8125 27.9449L21.8122 27.9445C21.9383 28.0019 22.0819 28.0079 22.2125 27.9613L26.3978 26.3906ZM33.0175 26.8753H33.0342L36.7527 28.4797C36.8859 28.536 37.0362 28.536 37.1694 28.4797L39.7039 27.4603H42.822L50.3588 37.7215H35.7516L30.299 30.0005H30.2994C30.415 29.9658 30.5139 29.9076 30.5829 29.8333L33.0174 26.8753H33.0175Z" fill="#CAAAF3"/>
</svg>
