<svg width="56" height="56" viewBox="0 0 56 56" fill="none" xmlns="http://www.w3.org/2000/svg">
<circle cx="28" cy="28" r="28" fill="#F57B51" fill-opacity="0.2"/>
<path fill-rule="evenodd" clip-rule="evenodd" d="M24.3112 10.3112C24.7261 9.89627 25.3989 9.89627 25.8138 10.3112L32.1888 16.6862C32.6037 17.1011 32.6037 17.7739 32.1888 18.1888C31.7739 18.6037 31.1011 18.6037 30.6862 18.1888L24.3112 11.8138C23.8963 11.3989 23.8963 10.7261 24.3112 10.3112Z" fill="#F57B51"/>
<path fill-rule="evenodd" clip-rule="evenodd" d="M32.1888 10.3112C32.6037 10.7261 32.6037 11.3989 32.1888 11.8138L25.8138 18.1888C25.3989 18.6037 24.7261 18.6037 24.3112 18.1888C23.8963 17.7739 23.8963 17.1011 24.3112 16.6862L30.6862 10.3112C31.1011 9.89627 31.7739 9.89627 32.1888 10.3112Z" fill="#F57B51"/>
<path fill-rule="evenodd" clip-rule="evenodd" d="M17.9776 28.1038C17.9776 25.2605 20.245 22.9555 23.042 22.9555C25.839 22.9555 28.1064 25.2605 28.1064 28.1038C28.1064 30.9472 25.839 33.2522 23.042 33.2522C23.0418 33.2522 23.0417 33.2522 23.0415 33.2522C20.2447 33.2519 17.9776 30.947 17.9776 28.1038ZM26.8703 33.9478C28.7257 32.6891 29.948 30.5416 29.948 28.1038C29.948 24.2265 26.856 21.0834 23.042 21.0834C19.2279 21.0834 16.136 24.2265 16.136 28.1038C16.136 30.5416 17.3582 32.6891 19.2136 33.9477C18.7817 34.1099 18.3589 34.2998 17.9479 34.5168C16.3745 35.3476 15.0207 36.551 14.001 38.0256C13.7085 38.4485 13.8087 39.0323 14.2247 39.3297C14.6407 39.627 15.2151 39.5252 15.5075 39.1023C16.3573 37.8734 17.4855 36.8705 18.7968 36.1782C20.1081 35.4858 21.564 35.1243 23.0416 35.1243C23.0416 35.1243 23.0417 35.1243 23.0418 35.1243C24.5193 35.1243 25.9752 35.4856 27.2865 36.1778C28.5978 36.8701 29.726 37.8729 30.5759 39.1017C30.8684 39.5246 31.4428 39.6263 31.8588 39.329C32.2748 39.0316 32.3749 38.4478 32.0824 38.0249C31.0626 36.5504 29.7087 35.347 28.1352 34.5164C27.7245 34.2996 27.302 34.1098 26.8703 33.9478Z" fill="#F57B51" stroke="#F57B51" stroke-width="0.2" stroke-linecap="round" stroke-linejoin="round"/>
<path fill-rule="evenodd" clip-rule="evenodd" d="M31.9623 23.1484C32.634 22.9489 33.3385 22.9034 34.0282 23.0151C34.718 23.1268 35.377 23.393 35.961 23.7958C36.545 24.1986 37.0403 24.7286 37.4135 25.3502C37.7868 25.9718 38.0294 26.6705 38.125 27.3992C38.2205 28.128 38.1669 28.8698 37.9675 29.5749C37.7682 30.2799 37.4279 30.9317 36.9695 31.4864C36.5111 32.0411 35.9453 32.4858 35.3101 32.7906C34.6856 33.0903 34.0083 33.2478 33.3224 33.253C33.3105 33.253 33.2987 33.253 33.2869 33.253C32.8733 33.2533 32.5259 33.5517 32.4275 33.9554C32.4239 33.9703 32.4206 33.9854 32.4176 34.0007C32.4058 34.0616 32.3996 34.1247 32.3996 34.1893C32.3997 34.7063 32.7972 35.1253 33.2876 35.1252C33.3002 35.1252 33.3128 35.1252 33.3254 35.1251C34.7374 35.1303 36.128 35.4908 37.3814 36.177C38.6458 36.8693 39.7334 37.8725 40.552 39.1018C40.8338 39.5249 41.3876 39.6271 41.7889 39.33C42.1903 39.033 42.2872 38.4492 42.0054 38.0261C41.0228 36.5506 39.7174 35.3465 38.1998 34.5157C37.8037 34.2988 37.3962 34.109 36.9798 33.947C37.4713 33.6017 37.9184 33.1881 38.3085 32.7161C38.9336 31.9597 39.3976 31.0709 39.6694 30.1095C39.9412 29.1482 40.0144 28.1366 39.8841 27.1428C39.7537 26.1491 39.4229 25.1964 38.9139 24.3488C38.405 23.5012 37.7296 22.7785 36.9333 22.2292C36.137 21.68 35.2383 21.317 34.2978 21.1647C33.3572 21.0125 32.3966 21.0744 31.4807 21.3465C31.0087 21.4867 30.7339 22.0037 30.8669 22.5013C30.9999 22.9989 31.4903 23.2886 31.9623 23.1484Z" fill="#F57B51" stroke="#F57B51" stroke-width="0.2" stroke-linecap="round" stroke-linejoin="round"/>
</svg>
