<svg width="56" height="56" viewBox="0 0 56 56" fill="none" xmlns="http://www.w3.org/2000/svg">
<circle cx="28" cy="28" r="28" fill="#F57B51" fill-opacity="0.2"/>
<path d="M23.0221 30.5199L23.0222 33.8049H34.2486C34.8009 33.8049 35.2486 34.2526 35.2486 34.8049L35.2486 35.1899C35.2486 35.7422 34.8008 36.1899 34.2486 36.1899H23.0221L23.0222 39.5999C23.0222 40.1522 22.5745 40.5999 22.0222 40.5999H21.6659C21.1136 40.5999 20.6659 40.1522 20.6659 39.5999L20.6661 36.1899H17.7999C17.2477 36.1899 16.7999 35.7422 16.7999 35.1899L16.7999 34.8049C16.8 34.2526 17.2477 33.8049 17.7999 33.8049H20.6661L20.6658 30.5199H17.7999C17.2477 30.5199 16.7999 30.0722 16.7999 29.5199L16.8 29.0172C16.8 28.4649 17.2477 28.0172 17.8 28.0172H20.6659V16.3999C20.6659 15.8476 21.1136 15.3999 21.6659 15.3999H30.1719C32.9924 15.3999 35.1993 16.1037 36.7924 17.5114C38.3974 18.9191 39.1999 20.7826 39.1999 23.1018C39.1999 25.548 38.4151 27.4345 36.8456 28.7614C35.2878 30.0768 33.0868 30.5199 30.1719 30.5199H23.0221ZM23.0222 28.0172L31.2163 27.9826C33.0337 27.9826 34.4263 27.5672 35.394 26.7364C36.3617 25.8941 36.8456 24.6826 36.8456 23.1018C36.8456 21.6018 36.3617 20.4018 35.394 19.5018C34.4263 18.6018 33.0986 18.1345 31.411 18.0999L23.0222 18.1345V28.0172Z" fill="#F57B51"/>
<line x1="15.3636" y1="39.3277" x2="37.9277" y2="15.4363" stroke="#F57B51" stroke-width="1.8" stroke-linecap="round"/>
</svg>
